#	OBJ Files/sphere42.obj : 42 vertices, 42 normals, 80 faces.
#	Range : [-0.951058, -1, -1] -> [0.951058, 1, 1]
#	Span : (1.90212, 2, 2)
v 0 -1 0
v 0.7236 -0.447215 0.52572
v -0.276385 -0.447215 0.85064
v -0.894425 -0.447215 0
v -0.276385 -0.447215 -0.85064
v 0.7236 -0.447215 -0.52572
v 0.276385 0.447215 0.85064
v -0.7236 0.447215 0.52572
v -0.7236 0.447215 -0.52572
v 0.276385 0.447215 -0.85064
v 0.894425 0.447215 -0
v 0 1 -0
v 0.425323 -0.850654 0.309011
v -0.162456 -0.850654 0.499995
v 0.262869 -0.525738 0.809012
v 0.425323 -0.850654 -0.309011
v 0.850648 -0.525736 0
v -0.52573 -0.850652 0
v -0.688189 -0.525736 0.499997
v -0.162456 -0.850654 -0.499995
v -0.688189 -0.525736 -0.499997
v 0.262869 -0.525738 -0.809012
v 0.951058 -0 -0.309013
v 0.951058 0 0.309013
v 0.587786 0 0.809017
v 0 0 1
v -0.587786 0 0.809017
v -0.951058 0 0.309013
v -0.951058 -0 -0.309013
v -0.587786 -0 -0.809017
v 0 -0 -1
v 0.587786 -0 -0.809017
v 0.688189 0.525736 0.499997
v -0.262869 0.525738 0.809012
v -0.850648 0.525736 -0
v -0.262869 0.525738 -0.809012
v 0.688189 0.525736 -0.499997
v 0.52573 0.850652 -0
v 0.162456 0.850654 0.499995
v -0.425323 0.850654 0.309011
v -0.425323 0.850654 -0.309011
v 0.162456 0.850654 -0.499995
vn -1.60933e-007 -0.943523 5.96046e-009
vn 0.682745 -0.421963 0.496039
vn -0.260783 -0.421964 0.802612
vn -0.843912 -0.421958 0
vn -0.260783 -0.421964 -0.802612
vn 0.682745 -0.421963 -0.496039
vn 0.260783 0.421964 0.802612
vn -0.682745 0.421963 0.496039
vn -0.682745 0.421963 -0.496039
vn 0.260783 0.421964 -0.802612
vn 0.843912 0.421958 0
vn 1.54972e-007 0.943523 0
vn 0.399981 -0.799956 0.290601
vn -0.152778 -0.799956 0.470204
vn 0.247202 -0.494404 0.760799
vn 0.399981 -0.799956 -0.290601
vn 0.799954 -0.494403 0
vn -0.494399 -0.799958 -4.96705e-009
vn -0.647173 -0.494403 0.470206
vn -0.152778 -0.799956 -0.470204
vn -0.647173 -0.494403 -0.470206
vn 0.247202 -0.494404 -0.760799
vn 0.894377 -4.44303e-006 -0.290602
vn 0.894377 -4.43806e-006 0.290602
vn 0.552756 7.07805e-007 0.760801
vn -4.96705e-009 -4.96705e-009 0.940403
vn -0.552756 -7.10289e-007 0.760801
vn -0.894377 4.44551e-006 0.290602
vn -0.894377 4.44551e-006 -0.290602
vn -0.552756 -7.10289e-007 -0.760801
vn 0 0 -0.940403
vn 0.552756 7.07805e-007 -0.760801
vn 0.647173 0.494403 0.470205
vn -0.247202 0.494404 0.760799
vn -0.799954 0.494403 0
vn -0.247202 0.494404 -0.760799
vn 0.647173 0.494403 -0.470205
vn 0.494399 0.799958 -4.96705e-009
vn 0.152778 0.799956 0.470204
vn -0.399981 0.799956 0.290601
vn -0.399981 0.799956 -0.290601
vn 0.152778 0.799956 -0.470204
f 15//15 13//13 2//2  
f 13//13 15//15 14//14  
f 3//3 14//14 15//15  
f 14//14 1//1 13//13  
f 17//17 2//2 13//13  
f 13//13 16//16 17//17  
f 6//6 17//17 16//16  
f 13//13 1//1 16//16  
f 19//19 14//14 3//3  
f 14//14 19//19 18//18  
f 4//4 18//18 19//19  
f 18//18 1//1 14//14  
f 21//21 18//18 4//4  
f 18//18 21//21 20//20  
f 5//5 20//20 21//21  
f 20//20 1//1 18//18  
f 22//22 20//20 5//5  
f 20//20 22//22 16//16  
f 6//6 16//16 22//22  
f 16//16 1//1 20//20  
f 24//24 2//2 17//17  
f 17//17 23//23 24//24  
f 11//11 24//24 23//23  
f 23//23 17//17 6//6  
f 26//26 3//3 15//15  
f 15//15 25//25 26//26  
f 7//7 26//26 25//25  
f 25//25 15//15 2//2  
f 28//28 4//4 19//19  
f 19//19 27//27 28//28  
f 8//8 28//28 27//27  
f 27//27 19//19 3//3  
f 30//30 5//5 21//21  
f 21//21 29//29 30//30  
f 9//9 30//30 29//29  
f 29//29 21//21 4//4  
f 32//32 6//6 22//22  
f 22//22 31//31 32//32  
f 10//10 32//32 31//31  
f 31//31 22//22 5//5  
f 33//33 24//24 11//11  
f 24//24 33//33 25//25  
f 7//7 25//25 33//33  
f 25//25 2//2 24//24  
f 34//34 26//26 7//7  
f 26//26 34//34 27//27  
f 8//8 27//27 34//34  
f 27//27 3//3 26//26  
f 35//35 28//28 8//8  
f 28//28 35//35 29//29  
f 9//9 29//29 35//35  
f 29//29 4//4 28//28  
f 36//36 30//30 9//9  
f 30//30 36//36 31//31  
f 10//10 31//31 36//36  
f 31//31 5//5 30//30  
f 37//37 32//32 10//10  
f 32//32 37//37 23//23  
f 11//11 23//23 37//37  
f 23//23 6//6 32//32  
f 39//39 7//7 33//33  
f 33//33 38//38 39//39  
f 12//12 39//39 38//38  
f 38//38 33//33 11//11  
f 40//40 8//8 34//34  
f 34//34 39//39 40//40  
f 12//12 40//40 39//39  
f 39//39 34//34 7//7  
f 41//41 9//9 35//35  
f 35//35 40//40 41//41  
f 12//12 41//41 40//40  
f 40//40 35//35 8//8  
f 42//42 10//10 36//36  
f 36//36 41//41 42//42  
f 12//12 42//42 41//41  
f 41//41 36//36 9//9  
f 38//38 11//11 37//37  
f 37//37 42//42 38//38  
f 12//12 38//38 42//42  
f 42//42 37//37 10//10  
